<svg xmlns="http://www.w3.org/2000/svg" viewBox="0 0 32 32"><title>date android app aplication phone</title><g id="date_android_app_aplication_phone" data-name="date android app aplication phone"><path d="M30.56,8.47a8,8,0,0,0-7-7,64.29,64.29,0,0,0-15.06,0,8,8,0,0,0-7,7,64.29,64.29,0,0,0,0,15.06,8,8,0,0,0,7,7,64.29,64.29,0,0,0,15.06,0,8,8,0,0,0,7-7A64.29,64.29,0,0,0,30.56,8.47ZM8.7,3.42a63.65,63.65,0,0,1,14.6,0A6,6,0,0,1,27.56,6H4.44A6,6,0,0,1,8.7,3.42ZM28.58,23.3a6,6,0,0,1-5.28,5.28,63.65,63.65,0,0,1-14.6,0A6,6,0,0,1,3.42,23.3a63.65,63.65,0,0,1,0-14.6A5.44,5.44,0,0,1,3.57,8H28.43a5.44,5.44,0,0,1,.15.7A63.65,63.65,0,0,1,28.58,23.3Z"/><path d="M8,11a3,3,0,1,0,3,3A3,3,0,0,0,8,11Zm0,4a1,1,0,1,1,1-1A1,1,0,0,1,8,15Z"/><path d="M16,11a3,3,0,1,0,3,3A3,3,0,0,0,16,11Zm0,4a1,1,0,1,1,1-1A1,1,0,0,1,16,15Z"/><path d="M24,11a3,3,0,1,0,3,3A3,3,0,0,0,24,11Zm0,4a1,1,0,1,1,1-1A1,1,0,0,1,24,15Z"/><path d="M8,19a3,3,0,1,0,3,3A3,3,0,0,0,8,19Zm0,4a1,1,0,1,1,1-1A1,1,0,0,1,8,23Z"/><path d="M16,19a3,3,0,1,0,3,3A3,3,0,0,0,16,19Zm0,4a1,1,0,1,1,1-1A1,1,0,0,1,16,23Z"/><path d="M24,19a3,3,0,1,0,3,3A3,3,0,0,0,24,19Zm0,4a1,1,0,1,1,1-1A1,1,0,0,1,24,23Z"/></g></svg>